<?xml version="1.0" encoding="utf-8"?>
<!-- Generator: Adobe Illustrator 22.1.0, SVG Export Plug-In . SVG Version: 6.00 Build 0)  -->
<svg version="1.1" id="Layer_1" xmlns="http://www.w3.org/2000/svg" xmlns:xlink="http://www.w3.org/1999/xlink" x="0px" y="0px"
	 viewBox="0 0 1920 1080" style="enable-background:new 0 0 1920 1080;" xml:space="preserve">
<g>
	<path d="M425.9,418.9c0,20.2,84.8,18.7,84.8,79.7c0,39.9-26.2,60.1-86.8,60.1c-61.1,0-82.3-14.1-86.8-15.6l15.6-41.4
		c20.2,5.6,40.4,10.6,58,10.6c21.7,0,26.7-3,26.7-9.1c0-16.7-84.8-20.2-84.8-79.7c0-37.8,30.8-59.5,80.2-59.5
		c29.3,0,48.9,5.6,74.2,15.1L487,421.4c-5-3-23.7-10.6-39.9-10.6C432.5,410.8,425.9,412.8,425.9,418.9z"/>
	<path d="M593,363.9c23.7,0,39.9,8.6,53,23.2v-16.7h71.2v180.2H646v-15.1c-12.6,14.6-29.8,23.2-52,23.2c-61.1,0-91.8-47.9-91.8-96.4
		C502.1,413.3,533.4,363.9,593,363.9z M610.1,496.6c23.2,0,34.8-17.7,34.8-35.8c0-17.7-11.6-35.3-34.8-35.3
		c-22.7,0-35.8,16.7-35.8,35.8C574.3,481.4,587.4,496.6,610.1,496.6z"/>
	<path d="M802.9,550.6h-73.2V370.4h73.2v14.1c13.1-14.1,30.8-20.7,49.5-20.7c54.5,0,83.8,33.8,83.8,89.8v96.9h-72.7v-96.9
		c0-21.7-15.6-32.8-30.8-32.8c-14.6,0-28.8,9.6-29.8,29.8V550.6z"/>
	<path d="M1045.1,497.1c12.6,0,21.7-5,30.3-10.6l40.4,41.9c-19.2,21.2-48.4,30.3-75.2,30.3c-68.6,0-103.5-48.4-103.5-97.4
		c0-48.4,34.8-97.4,103.5-97.4c26.7,0,56.5,9.6,75.7,30.8l-41.9,41.9c-7.6-6.1-16.7-11.1-29.3-11.1c-22.7,0-35.8,16.7-35.8,35.8
		C1009.3,480.4,1022.4,497.1,1045.1,497.1z"/>
	<path d="M1129.9,451.2v-22.7h-22.7v-58h22.7v-52h72.2v52h33.8v58h-33.8v21.7c0,40.4,7.6,43.4,16.6,43.4c4,0,8.6-1.5,12.6-2.5
		l9.1,55.5c-21.2,7.6-34.3,10.6-46.4,10.6C1129.4,557.1,1129.9,507.2,1129.9,451.2z"/>
	<path d="M1245,370.4h73.2v15.6c11.6-12.1,29.3-22.2,46.9-22.2c30.8,0,51,11.1,65.1,30.8c17.7-18.7,34.8-30.8,60.1-30.8
		c54.5,0,83.8,33.8,83.8,89.8v96.9h-72.7v-96.9c0-21.7-12.6-32.8-27.8-32.8c-14.6,0-27.2,9.6-27.2,32.8v96.9h-72.7v-96.9
		c0-21.7-13.1-32.8-28.3-32.8c-14.6,0-27.2,9.6-27.2,29.8v99.9H1245V370.4z"/>
</g>
</svg>
